<svg width="45" height="50" viewBox="0 0 45 50" fill="none" xmlns="http://www.w3.org/2000/svg">
<g clip-path="url(#clip0_73_461)">
<path d="M12.9844 0C14.2832 0 15.3281 1.04492 15.3281 2.34375V6.25H29.3906V2.34375C29.3906 1.04492 30.4355 0 31.7344 0C33.0332 0 34.0781 1.04492 34.0781 2.34375V6.25H37.9844C41.4316 6.25 44.2344 9.05273 44.2344 12.5V14.0625V18.75V43.75C44.2344 47.1973 41.4316 50 37.9844 50H6.73438C3.28711 50 0.484375 47.1973 0.484375 43.75V18.75V14.0625V12.5C0.484375 9.05273 3.28711 6.25 6.73438 6.25H10.6406V2.34375C10.6406 1.04492 11.6855 0 12.9844 0ZM39.5469 18.75H5.17188V43.75C5.17188 44.6094 5.875 45.3125 6.73438 45.3125H37.9844C38.8438 45.3125 39.5469 44.6094 39.5469 43.75V18.75ZM32.6133 29.0039L21.6758 39.9414C20.7578 40.8594 19.2734 40.8594 18.3652 39.9414L12.1152 33.6914C11.1973 32.7734 11.1973 31.2891 12.1152 30.3809C13.0332 29.4727 14.5176 29.4629 15.4258 30.3809L20.0156 34.9707L29.293 25.6934C30.2109 24.7754 31.6953 24.7754 32.6035 25.6934C33.5117 26.6113 33.5215 28.0957 32.6035 29.0039H32.6133Z" fill="#54387F"/>
</g>
<defs>
<clipPath id="clip0_73_461">
<rect width="43.75" height="50" fill="white" transform="translate(0.484375)"/>
</clipPath>
</defs>
</svg>
