<svg width="51" height="48" viewBox="0 0 51 48" fill="none" xmlns="http://www.w3.org/2000/svg">
<g clip-path="url(#clip0_73_447)">
<path d="M25.9792 4.25966L32.8337 6.86383L25.7374 9.5796L18.6317 6.85453L25.4862 4.25036C25.6443 4.18526 25.8211 4.18526 25.9792 4.25036V4.25966ZM12.4282 8.10081V17.9129C12.3166 17.9501 12.205 17.9873 12.0934 18.0245L3.68564 21.2146C1.77902 21.9401 0.523438 23.763 0.523438 25.7998V36.2258C0.523438 38.1696 1.67671 39.9274 3.45312 40.718L11.8609 44.4103C13.1164 44.9591 14.5487 44.9591 15.8043 44.4103L25.7374 40.0484L35.6704 44.4103C36.926 44.9591 38.3583 44.9591 39.6138 44.4103L48.0216 40.718C49.798 39.9367 50.9513 38.1789 50.9513 36.2258V25.7998C50.9513 23.763 49.6957 21.9401 47.7891 21.2146L39.3813 18.0245C39.2697 17.978 39.1581 17.9408 39.0465 17.9129V8.10081C39.0465 6.06398 37.7909 4.24106 35.8843 3.51561L27.4766 0.325509C26.3605 -0.102318 25.1235 -0.102318 23.9981 0.325509L15.5904 3.51561C13.6838 4.24106 12.4282 6.06398 12.4282 8.10081ZM34.8426 18.4338L27.6347 21.1681V13.3556L34.8426 10.5934V18.4338ZM14.0744 21.9587L20.9289 24.5629L13.8233 27.2879L6.72693 24.5629L13.5815 21.9587C13.7396 21.8936 13.9163 21.8936 14.0744 21.9587ZM15.7206 39.853V31.0547L22.9286 28.2924V36.6815L15.7206 39.853ZM37.391 21.9587C37.5491 21.8936 37.7258 21.8936 37.8839 21.9587L44.7385 24.5629L37.6328 27.2879L30.5272 24.5629L37.3817 21.9587H37.391ZM46.3289 36.8675L39.5394 39.853V31.0547L46.7474 28.2924V36.2258C46.7474 36.5048 46.58 36.7559 46.3289 36.8675Z" fill="#54387F"/>
</g>
<defs>
<clipPath id="clip0_73_447">
<rect width="50" height="47.619" fill="white" transform="translate(0.515625)"/>
</clipPath>
</defs>
</svg>
