<svg width="35" height="35" viewBox="0 0 35 35" fill="none" xmlns="http://www.w3.org/2000/svg">
<g clip-path="url(#clip0_118_433)">
<path d="M34.4531 17.5C34.4531 8.13477 26.8652 0.546875 17.5 0.546875C8.13477 0.546875 0.546875 8.13477 0.546875 17.5C0.546875 25.9615 6.74639 32.9752 14.8511 34.248V22.4007H10.5444V17.5H14.8511V13.7648C14.8511 9.51631 17.3804 7.16953 21.2543 7.16953C23.1096 7.16953 25.0496 7.50039 25.0496 7.50039V11.6703H22.9113C20.8059 11.6703 20.1489 12.9773 20.1489 14.3179V17.5H24.8507L24.0987 22.4007H20.1489V34.248C28.2536 32.9752 34.4531 25.9615 34.4531 17.5Z" fill="white"/>
</g>
<defs>
<clipPath id="clip0_118_433">
<rect width="35" height="35" fill="white"/>
</clipPath>
</defs>
</svg>
