<svg width="50" height="50" viewBox="0 0 50 50" fill="none" xmlns="http://www.w3.org/2000/svg">
<path d="M30.6055 3.0918C33.1445 3.59961 34.7949 6.07031 34.2871 8.60938L34.0625 9.72266C33.5449 12.3301 32.5879 14.8105 31.25 17.0664H45.3125C47.9004 17.0664 50 19.166 50 21.7539C50 23.5605 48.9746 25.1328 47.4707 25.9141C48.5352 26.7734 49.2188 28.0918 49.2188 29.5664C49.2188 31.8516 47.5781 33.7559 45.4199 34.166C45.8496 34.8789 46.0938 35.709 46.0938 36.5977C46.0938 38.6777 44.7363 40.4453 42.8613 41.0508C42.9297 41.373 42.9688 41.7148 42.9688 42.0664C42.9688 44.6543 40.8691 46.7539 38.2812 46.7539H28.7598C26.9043 46.7539 25.0977 46.207 23.5547 45.1816L19.7949 42.6719C17.1875 40.9336 15.625 38.0039 15.625 34.8691V31.1289V26.4414V24.0098C15.625 21.1582 16.9238 18.4727 19.1406 16.6855L19.8633 16.1094C22.4512 14.0391 24.2188 11.1289 24.8633 7.88672L25.0879 6.77344C25.5957 4.23437 28.0664 2.58398 30.6055 3.0918ZM3.125 18.6289H9.375C11.1035 18.6289 12.5 20.0254 12.5 21.7539V43.6289C12.5 45.3574 11.1035 46.7539 9.375 46.7539H3.125C1.39648 46.7539 0 45.3574 0 43.6289V21.7539C0 20.0254 1.39648 18.6289 3.125 18.6289Z" fill="#54387F"/>
</svg>
