<svg width="18" height="18" viewBox="0 0 18 18" fill="none" xmlns="http://www.w3.org/2000/svg">
<g clip-path="url(#clip0_73_117)">
<path d="M6.16325 17.8036C6.11094 17.8036 6.05582 17.7929 6.00575 17.7699C5.83757 17.6917 5.75207 17.5044 5.80269 17.326L7.84344 10.157L3.27988 11.1104C3.15782 11.1324 3.03407 11.0969 2.94463 11.0154C2.85519 10.9304 2.81357 10.8078 2.83269 10.6846L4.21419 2.01367C4.23894 1.86292 4.35369 1.74311 4.50219 1.70767L10.9333 0.207482C11.0666 0.173732 11.21 0.221544 11.3006 0.326169C11.3928 0.431919 11.4176 0.578169 11.3681 0.706982L9.50113 5.54504L14.7003 4.19561C14.8511 4.15342 15.0108 4.21304 15.1014 4.34017C15.1908 4.46673 15.1936 4.63717 15.1059 4.76317L6.47657 17.6337C6.404 17.7434 6.28475 17.8036 6.16325 17.8036ZM8.37388 9.28848C8.47738 9.28848 8.57694 9.33123 8.64782 9.40829C8.73726 9.50336 8.771 9.64004 8.73388 9.76604L7.17407 15.251L13.9308 5.17323L8.97857 6.45742C8.84075 6.48948 8.69732 6.44673 8.6045 6.34492C8.51057 6.23748 8.48525 6.09123 8.53419 5.95961L10.4107 1.10017L4.91225 2.38098L3.65619 10.2678L8.29513 9.29973C8.32269 9.2913 8.34857 9.28848 8.37444 9.28848H8.37388Z" fill="white"/>
</g>
<defs>
<clipPath id="clip0_73_117">
<rect width="18" height="18" fill="white"/>
</clipPath>
</defs>
</svg>
