<svg width="31" height="35" viewBox="0 0 31 35" fill="none" xmlns="http://www.w3.org/2000/svg">
<g clip-path="url(#clip0_118_437)">
<path d="M28.4375 2.1875H2.18066C0.977539 2.1875 0 3.17871 0 4.39551V30.6045C0 31.8213 0.977539 32.8125 2.18066 32.8125H28.4375C29.6406 32.8125 30.625 31.8213 30.625 30.6045V4.39551C30.625 3.17871 29.6406 2.1875 28.4375 2.1875ZM9.25586 28.4375H4.7168V13.8223H9.2627V28.4375H9.25586ZM6.98633 11.8262C5.53027 11.8262 4.35449 10.6436 4.35449 9.19434C4.35449 7.74512 5.53027 6.5625 6.98633 6.5625C8.43555 6.5625 9.61816 7.74512 9.61816 9.19434C9.61816 10.6504 8.44238 11.8262 6.98633 11.8262ZM26.2705 28.4375H21.7314V21.3281C21.7314 19.6328 21.6973 17.4521 19.373 17.4521C17.0078 17.4521 16.6455 19.2979 16.6455 21.2051V28.4375H12.1064V13.8223H16.4609V15.8184H16.5225C17.1309 14.6699 18.6143 13.46 20.8223 13.46C25.416 13.46 26.2705 16.4883 26.2705 20.4258V28.4375Z" fill="white"/>
</g>
<defs>
<clipPath id="clip0_118_437">
<rect width="30.625" height="35" fill="white"/>
</clipPath>
</defs>
</svg>
