<svg width="54" height="40" viewBox="0 0 54 40" fill="none" xmlns="http://www.w3.org/2000/svg">
<path d="M14.9981 0.666667C15.3483 0.404023 15.7468 0.212927 16.1709 0.104288C16.5949 -0.00435051 17.0362 -0.0284041 17.4695 0.0335017C17.9029 0.0954074 18.3198 0.24206 18.6965 0.465085C19.0731 0.688111 19.4022 0.983143 19.6648 1.33333C19.9275 1.68353 20.1185 2.08202 20.2272 2.50606C20.3358 2.93011 20.3599 3.3714 20.298 3.80474C20.2361 4.23808 20.0894 4.65498 19.8664 5.03165C19.6434 5.40831 19.3483 5.73736 18.9981 6C13.7848 9.91 10.7981 13.7133 9.08814 17.0333C11.436 16.4289 13.9139 16.571 16.1773 17.4398C18.4408 18.3087 20.3773 19.861 21.7178 21.8812C23.0582 23.9014 23.736 26.289 23.657 28.7121C23.5779 31.1353 22.7459 33.4736 21.2766 35.4021C19.8073 37.3306 17.7737 38.7534 15.4585 39.4729C13.1432 40.1923 10.6614 40.1726 8.35785 39.4164C6.05434 38.6603 4.04362 37.2053 2.60516 35.2536C1.16671 33.302 0.371996 30.9508 0.331474 28.5267C-0.0956516 24.4331 0.485709 20.2972 2.02481 16.48C4.01481 11.46 7.90481 5.98667 14.9981 0.666667ZM44.9981 0.666667C45.3483 0.404023 45.7468 0.212927 46.1709 0.104288C46.5949 -0.00435051 47.0362 -0.0284041 47.4696 0.0335017C47.9029 0.0954074 48.3198 0.24206 48.6965 0.465085C49.0731 0.688111 49.4022 0.983143 49.6648 1.33333C49.9275 1.68353 50.1185 2.08202 50.2272 2.50606C50.3358 2.93011 50.3599 3.3714 50.298 3.80474C50.2361 4.23808 50.0894 4.65498 49.8664 5.03165C49.6434 5.40831 49.3483 5.73736 48.9981 6C43.7848 9.91 40.7981 13.7133 39.0881 17.0333C41.436 16.4289 43.9139 16.571 46.1773 17.4398C48.4408 18.3087 50.3773 19.861 51.7178 21.8812C53.0582 23.9014 53.736 26.289 53.657 28.7121C53.5779 31.1353 52.7459 33.4736 51.2766 35.4021C49.8073 37.3306 47.7737 38.7534 45.4585 39.4729C43.1432 40.1923 40.6614 40.1726 38.3578 39.4164C36.0543 38.6603 34.0436 37.2053 32.6052 35.2536C31.1667 33.302 30.372 30.9508 30.3315 28.5267C29.9044 24.4331 30.4857 20.2972 32.0248 16.48C34.0181 11.46 37.9048 5.98667 44.9981 0.666667Z" fill="#C9C9C9" fill-opacity="0.2"/>
</svg>
