<svg width="57" height="50" viewBox="0 0 57 50" fill="none" xmlns="http://www.w3.org/2000/svg">
<g clip-path="url(#clip0_73_454)">
<path d="M0.484375 12.5C0.484375 9.05273 3.28711 6.25 6.73438 6.25H31.7344C35.1816 6.25 37.9844 9.05273 37.9844 12.5V37.5C37.9844 40.9473 35.1816 43.75 31.7344 43.75H6.73438C3.28711 43.75 0.484375 40.9473 0.484375 37.5V12.5ZM55.084 9.74609C56.0996 10.293 56.7344 11.3477 56.7344 12.5V37.5C56.7344 38.6523 56.0996 39.707 55.084 40.2539C54.0684 40.8008 52.8379 40.7422 51.8711 40.0977L42.4961 33.8477L41.1094 32.9199V31.25V18.75V17.0801L42.4961 16.1523L51.8711 9.90234C52.8281 9.26758 54.0586 9.19922 55.084 9.74609Z" fill="#54387F"/>
</g>
<defs>
<clipPath id="clip0_73_454">
<rect width="56.25" height="50" fill="white" transform="translate(0.484375)"/>
</clipPath>
</defs>
</svg>
