<svg width="40" height="35" viewBox="0 0 40 35" fill="none" xmlns="http://www.w3.org/2000/svg">
<path d="M38.2017 8.48224C37.7723 6.86554 36.5073 5.59228 34.901 5.16018C31.9896 4.375 20.3151 4.375 20.3151 4.375C20.3151 4.375 8.64071 4.375 5.72922 5.16018C4.12298 5.59234 2.85792 6.86554 2.42855 8.48224C1.64844 11.4126 1.64844 17.5265 1.64844 17.5265C1.64844 17.5265 1.64844 23.6404 2.42855 26.5708C2.85792 28.1875 4.12298 29.4077 5.72922 29.8398C8.64071 30.625 20.3151 30.625 20.3151 30.625C20.3151 30.625 31.9895 30.625 34.901 29.8398C36.5073 29.4077 37.7723 28.1875 38.2017 26.5708C38.9818 23.6404 38.9818 17.5265 38.9818 17.5265C38.9818 17.5265 38.9818 11.4126 38.2017 8.48224ZM16.4969 23.0775V11.9755L26.2545 17.5267L16.4969 23.0775Z" fill="white"/>
</svg>
